<?xml version="1.0" standalone="no"?>
<!DOCTYPE svg PUBLIC "-//W3C//DTD SVG 20010904//EN"
 "http://www.w3.org/TR/2001/REC-SVG-20010904/DTD/svg10.dtd">
<svg version="1.0" xmlns="http://www.w3.org/2000/svg"
 width="4000.000000pt" height="4000.000000pt" viewBox="0 0 4000.000000 4000.000000"
 preserveAspectRatio="xMidYMid meet">
<metadata>
Created by potrace 1.14, written by Peter Selinger 2001-2017
</metadata>
<g transform="translate(0.000000,4000.000000) scale(0.100000,-0.100000)"
fill="#000000" stroke="none">
<path d="M25425 37814 c-27 -2 -129 -8 -225 -14 -1724 -107 -3333 -649 -4495
-1515 -749 -557 -1364 -1288 -1736 -2060 -304 -632 -474 -1308 -529 -2105 -13
-190 -13 -701 0 -910 125 -1970 1027 -3454 2695 -4436 202 -118 608 -322 835
-419 904 -383 1874 -639 3135 -825 595 -88 1065 -178 1540 -295 1503 -370
2506 -924 2987 -1649 223 -338 342 -710 367 -1145 21 -373 -33 -661 -179 -956
-108 -221 -239 -394 -458 -606 -414 -402 -961 -713 -1638 -933 -635 -206
-1293 -288 -2118 -265 -1042 29 -1849 192 -2596 524 -137 61 -444 215 -590
295 -443 244 -1026 633 -1216 811 -115 108 -361 313 -546 456 -934 720 -1855
1207 -2848 1506 -930 280 -1901 436 -3025 487 -288 13 -989 13 -1230 0 -1328
-73 -2549 -383 -3647 -927 -732 -362 -1305 -769 -1854 -1318 -999 -998 -1504
-2067 -1636 -3460 -17 -186 -17 -1013 0 -1220 87 -1030 294 -1768 687 -2450
613 -1063 1686 -1842 3280 -2381 898 -305 1815 -534 3215 -804 912 -176 1753
-393 2385 -615 930 -327 1544 -794 1834 -1395 221 -458 277 -1068 146 -1582
-181 -707 -751 -1277 -1615 -1615 -583 -229 -1181 -338 -1989 -362 -444 -14
-809 9 -1196 74 -952 162 -2314 660 -3125 1145 -209 125 -408 264 -580 405
-152 125 -273 193 -443 250 -139 47 -263 65 -439 65 -451 0 -831 -169 -1174
-521 -260 -268 -425 -564 -496 -893 -19 -87 -22 -132 -23 -326 0 -195 3 -240
23 -336 39 -195 106 -371 209 -552 143 -250 327 -454 643 -717 613 -509 1261
-892 2095 -1240 1092 -455 2118 -695 3375 -791 277 -21 1105 -30 1400 -15
1805 92 3400 604 4615 1480 738 532 1368 1256 1749 2011 309 611 484 1236 562
2000 21 210 30 849 15 1090 -127 2047 -1070 3552 -2845 4540 -977 544 -2232
925 -3821 1160 -935 138 -1685 306 -2340 525 -1059 353 -1798 833 -2186 1419
-226 340 -343 707 -368 1149 -28 498 91 899 381 1279 122 160 364 395 563 544
556 418 1327 730 2126 858 359 58 630 78 1064 78 1133 -1 2036 -166 2830 -517
154 -68 465 -222 620 -307 437 -241 1022 -632 1211 -809 267 -251 756 -629
1154 -894 833 -552 1633 -914 2575 -1163 1030 -273 2098 -402 3325 -402 552 0
884 19 1335 75 1567 196 3044 775 4130 1619 232 180 399 328 631 560 671 671
1097 1337 1365 2136 157 470 242 911 280 1455 14 197 7 917 -11 1120 -77 897
-245 1556 -555 2177 -618 1237 -1742 2081 -3565 2676 -858 280 -1744 498
-3060 752 -907 175 -1779 400 -2390 617 -927 328 -1541 795 -1829 1393 -128
265 -192 530 -210 870 -53 972 424 1725 1394 2200 630 309 1334 461 2274 489
549 17 991 -22 1505 -134 509 -111 1192 -332 1766 -571 707 -294 1220 -583
1630 -919 152 -125 273 -193 443 -250 139 -47 263 -65 439 -65 429 0 793 152
1122 470 289 280 472 594 548 944 19 87 22 132 23 326 0 195 -3 240 -23 336
-39 195 -106 371 -209 552 -143 250 -327 454 -643 717 -709 589 -1480 1020
-2514 1404 -937 349 -1844 541 -2956 627 -190 15 -1212 28 -1355 18z"/>
</g>
</svg>
